<svg width="551" height="651" viewBox="0 0 551 651" fill="none" xmlns="http://www.w3.org/2000/svg">
<path d="M165.5 502C144.5 502 126.5 497.167 111.5 487.5C96.5 477.5 85 464.333 77 448C69 431.333 65 412.833 65 392.5C65 363.5 71.1667 337.667 83.5 315C96.1667 292.333 113.167 274.5 134.5 261.5C155.833 248.5 179.667 242 206 242C227 242 244.167 246.167 257.5 254.5C270.833 262.5 280.833 273 287.5 286L314 136H367L303 496H255.5L257 457.5C247.333 469.167 235.167 479.5 220.5 488.5C205.833 497.5 187.5 502 165.5 502ZM183.5 456C200.833 456 216.333 451.333 230 442C243.667 432.667 254.333 420.333 262 405C270 389.333 274 372.167 274 353.5C274 333.833 268.167 318 256.5 306C245.167 294 229.667 288 210 288C192.667 288 177.167 292.333 163.5 301C150.167 309.667 139.5 321.5 131.5 336.5C123.833 351.167 120 367.833 120 386.5C120 406.167 125.667 422.667 137 436C148.333 449.333 163.833 456 183.5 456ZM382.918 496L418.918 292.5H383.418L391.418 248H426.918L432.918 212C437.918 185 448.251 165.667 463.918 154C479.585 142 499.751 136 524.418 136H550.418L542.418 181H524.418C512.751 181 503.918 183.5 497.918 188.5C491.918 193.167 487.918 201.167 485.918 212.5L479.918 248H536.918L528.918 292.5H471.918L435.918 496H382.918Z" fill="#F5F5F5"/>
<path d="M153.5 502C132.5 502 114.5 497.167 99.5 487.5C84.5 477.5 73 464.333 65 448C57 431.333 53 412.833 53 392.5C53 363.5 59.1667 337.667 71.5 315C84.1667 292.333 101.167 274.5 122.5 261.5C143.833 248.5 167.667 242 194 242C215 242 232.167 246.167 245.5 254.5C258.833 262.5 268.833 273 275.5 286L302 136H355L291 496H243.5L245 457.5C235.333 469.167 223.167 479.5 208.5 488.5C193.833 497.5 175.5 502 153.5 502ZM171.5 456C188.833 456 204.333 451.333 218 442C231.667 432.667 242.333 420.333 250 405C258 389.333 262 372.167 262 353.5C262 333.833 256.167 318 244.5 306C233.167 294 217.667 288 198 288C180.667 288 165.167 292.333 151.5 301C138.167 309.667 127.5 321.5 119.5 336.5C111.833 351.167 108 367.833 108 386.5C108 406.167 113.667 422.667 125 436C136.333 449.333 151.833 456 171.5 456ZM370.918 496L406.918 292.5H371.418L379.418 248H414.918L420.918 212C425.918 185 436.251 165.667 451.918 154C467.585 142 487.751 136 512.418 136H538.418L530.418 181H512.418C500.751 181 491.918 183.5 485.918 188.5C479.918 193.167 475.918 201.167 473.918 212.5L467.918 248H524.918L516.918 292.5H459.918L423.918 496H370.918Z" fill="#F94144"/>
<path d="M136.5 502C115.5 502 97.5 497.167 82.5 487.5C67.5 477.5 56 464.333 48 448C40 431.333 36 412.833 36 392.5C36 363.5 42.1667 337.667 54.5 315C67.1667 292.333 84.1667 274.5 105.5 261.5C126.833 248.5 150.667 242 177 242C198 242 215.167 246.167 228.5 254.5C241.833 262.5 251.833 273 258.5 286L285 136H338L274 496H226.5L228 457.5C218.333 469.167 206.167 479.5 191.5 488.5C176.833 497.5 158.5 502 136.5 502ZM154.5 456C171.833 456 187.333 451.333 201 442C214.667 432.667 225.333 420.333 233 405C241 389.333 245 372.167 245 353.5C245 333.833 239.167 318 227.5 306C216.167 294 200.667 288 181 288C163.667 288 148.167 292.333 134.5 301C121.167 309.667 110.5 321.5 102.5 336.5C94.8333 351.167 91 367.833 91 386.5C91 406.167 96.6667 422.667 108 436C119.333 449.333 134.833 456 154.5 456ZM353.918 496L389.918 292.5H354.418L362.418 248H397.918L403.918 212C408.918 185 419.251 165.667 434.918 154C450.585 142 470.751 136 495.418 136H521.418L513.418 181H495.418C483.751 181 474.918 183.5 468.918 188.5C462.918 193.167 458.918 201.167 456.918 212.5L450.918 248H507.918L499.918 292.5H442.918L406.918 496H353.918Z" fill="#F9C74F"/>
<path d="M122.5 502C101.5 502 83.5 497.167 68.5 487.5C53.5 477.5 42 464.333 34 448C26 431.333 22 412.833 22 392.5C22 363.5 28.1667 337.667 40.5 315C53.1667 292.333 70.1667 274.5 91.5 261.5C112.833 248.5 136.667 242 163 242C184 242 201.167 246.167 214.5 254.5C227.833 262.5 237.833 273 244.5 286L271 136H324L260 496H212.5L214 457.5C204.333 469.167 192.167 479.5 177.5 488.5C162.833 497.5 144.5 502 122.5 502ZM140.5 456C157.833 456 173.333 451.333 187 442C200.667 432.667 211.333 420.333 219 405C227 389.333 231 372.167 231 353.5C231 333.833 225.167 318 213.5 306C202.167 294 186.667 288 167 288C149.667 288 134.167 292.333 120.5 301C107.167 309.667 96.5 321.5 88.5 336.5C80.8333 351.167 77 367.833 77 386.5C77 406.167 82.6667 422.667 94 436C105.333 449.333 120.833 456 140.5 456ZM339.918 496L375.918 292.5H340.418L348.418 248H383.918L389.918 212C394.918 185 405.251 165.667 420.918 154C436.585 142 456.751 136 481.418 136H507.418L499.418 181H481.418C469.751 181 460.918 183.5 454.918 188.5C448.918 193.167 444.918 201.167 442.918 212.5L436.918 248H493.918L485.918 292.5H428.918L392.918 496H339.918Z" fill="#277DA1"/>
</svg>
